<mxfile host="app.diagrams.net" agent="Mozilla/5.0 (Windows NT 10.0; Win64; x64; rv:132.0) Gecko/20100101 Firefox/132.0" version="25.0.1">
  <diagram name="Página-1" id="eKLf_85lMm5Quof55hN_">
    <mxGraphModel dx="1202" dy="677" grid="1" gridSize="10" guides="1" tooltips="1" connect="1" arrows="1" fold="1" page="1" pageScale="1" pageWidth="1169" pageHeight="1654" math="0" shadow="0">
      <root>
        <mxCell id="0" />
        <mxCell id="1" parent="0" />
        <mxCell id="7U9tzZbBcS-bRDwXbW8W-15" style="edgeStyle=orthogonalEdgeStyle;rounded=0;orthogonalLoop=1;jettySize=auto;html=1;exitX=0.5;exitY=1;exitDx=0;exitDy=0;entryX=0.5;entryY=0;entryDx=0;entryDy=0;" edge="1" parent="1" source="7U9tzZbBcS-bRDwXbW8W-13">
          <mxGeometry relative="1" as="geometry">
            <mxPoint x="215" y="110" as="targetPoint" />
          </mxGeometry>
        </mxCell>
        <mxCell id="7U9tzZbBcS-bRDwXbW8W-13" value="" style="ellipse;html=1;shape=startState;fillColor=#000000;strokeColor=#ff0000;" vertex="1" parent="1">
          <mxGeometry x="200" y="40" width="30" height="30" as="geometry" />
        </mxCell>
        <mxCell id="7U9tzZbBcS-bRDwXbW8W-19" style="edgeStyle=orthogonalEdgeStyle;rounded=0;orthogonalLoop=1;jettySize=auto;html=1;exitX=0.5;exitY=1;exitDx=0;exitDy=0;entryX=0.5;entryY=0;entryDx=0;entryDy=0;" edge="1" parent="1" source="7U9tzZbBcS-bRDwXbW8W-17" target="7U9tzZbBcS-bRDwXbW8W-18">
          <mxGeometry relative="1" as="geometry" />
        </mxCell>
        <mxCell id="7U9tzZbBcS-bRDwXbW8W-17" value="Inicia systick e clock do uP em 80mHz" style="rounded=1;whiteSpace=wrap;html=1;" vertex="1" parent="1">
          <mxGeometry x="155" y="110" width="120" height="60" as="geometry" />
        </mxCell>
        <mxCell id="7U9tzZbBcS-bRDwXbW8W-21" style="edgeStyle=orthogonalEdgeStyle;rounded=0;orthogonalLoop=1;jettySize=auto;html=1;exitX=0.5;exitY=1;exitDx=0;exitDy=0;entryX=0.5;entryY=0;entryDx=0;entryDy=0;" edge="1" parent="1" source="7U9tzZbBcS-bRDwXbW8W-18" target="7U9tzZbBcS-bRDwXbW8W-20">
          <mxGeometry relative="1" as="geometry" />
        </mxCell>
        <mxCell id="7U9tzZbBcS-bRDwXbW8W-18" value="Inicializa portas" style="shape=process;whiteSpace=wrap;html=1;backgroundOutline=1;" vertex="1" parent="1">
          <mxGeometry x="155" y="200" width="120" height="60" as="geometry" />
        </mxCell>
        <mxCell id="7U9tzZbBcS-bRDwXbW8W-23" style="edgeStyle=orthogonalEdgeStyle;rounded=0;orthogonalLoop=1;jettySize=auto;html=1;exitX=0.5;exitY=1;exitDx=0;exitDy=0;entryX=0.5;entryY=0;entryDx=0;entryDy=0;" edge="1" parent="1" source="7U9tzZbBcS-bRDwXbW8W-20" target="7U9tzZbBcS-bRDwXbW8W-22">
          <mxGeometry relative="1" as="geometry" />
        </mxCell>
        <mxCell id="7U9tzZbBcS-bRDwXbW8W-20" value="Inicializa LCD" style="shape=process;whiteSpace=wrap;html=1;backgroundOutline=1;" vertex="1" parent="1">
          <mxGeometry x="155" y="290" width="120" height="60" as="geometry" />
        </mxCell>
        <mxCell id="7U9tzZbBcS-bRDwXbW8W-25" style="edgeStyle=orthogonalEdgeStyle;rounded=0;orthogonalLoop=1;jettySize=auto;html=1;exitX=0.5;exitY=1;exitDx=0;exitDy=0;entryX=0.5;entryY=0;entryDx=0;entryDy=0;" edge="1" parent="1" source="7U9tzZbBcS-bRDwXbW8W-22" target="7U9tzZbBcS-bRDwXbW8W-24">
          <mxGeometry relative="1" as="geometry" />
        </mxCell>
        <mxCell id="7U9tzZbBcS-bRDwXbW8W-22" value="Inicializa timer" style="shape=process;whiteSpace=wrap;html=1;backgroundOutline=1;" vertex="1" parent="1">
          <mxGeometry x="155" y="380" width="120" height="60" as="geometry" />
        </mxCell>
        <mxCell id="7U9tzZbBcS-bRDwXbW8W-27" style="edgeStyle=orthogonalEdgeStyle;rounded=0;orthogonalLoop=1;jettySize=auto;html=1;exitX=0.5;exitY=1;exitDx=0;exitDy=0;entryX=0.5;entryY=0;entryDx=0;entryDy=0;" edge="1" parent="1" source="7U9tzZbBcS-bRDwXbW8W-24" target="7U9tzZbBcS-bRDwXbW8W-26">
          <mxGeometry relative="1" as="geometry" />
        </mxCell>
        <mxCell id="7U9tzZbBcS-bRDwXbW8W-24" value="inicializa interruptions" style="shape=process;whiteSpace=wrap;html=1;backgroundOutline=1;" vertex="1" parent="1">
          <mxGeometry x="155" y="470" width="120" height="60" as="geometry" />
        </mxCell>
        <mxCell id="7U9tzZbBcS-bRDwXbW8W-30" style="edgeStyle=orthogonalEdgeStyle;rounded=0;orthogonalLoop=1;jettySize=auto;html=1;exitX=1;exitY=0.5;exitDx=0;exitDy=0;entryX=0;entryY=0.5;entryDx=0;entryDy=0;" edge="1" parent="1" source="7U9tzZbBcS-bRDwXbW8W-26" target="7U9tzZbBcS-bRDwXbW8W-29">
          <mxGeometry relative="1" as="geometry" />
        </mxCell>
        <mxCell id="7U9tzZbBcS-bRDwXbW8W-26" value="cria tabela de fatores" style="shape=process;whiteSpace=wrap;html=1;backgroundOutline=1;" vertex="1" parent="1">
          <mxGeometry x="155" y="560" width="120" height="60" as="geometry" />
        </mxCell>
        <mxCell id="7U9tzZbBcS-bRDwXbW8W-33" style="edgeStyle=orthogonalEdgeStyle;rounded=0;orthogonalLoop=1;jettySize=auto;html=1;exitX=1;exitY=0.5;exitDx=0;exitDy=0;entryX=0;entryY=0.5;entryDx=0;entryDy=0;" edge="1" parent="1" source="7U9tzZbBcS-bRDwXbW8W-29" target="7U9tzZbBcS-bRDwXbW8W-32">
          <mxGeometry relative="1" as="geometry" />
        </mxCell>
        <mxCell id="7U9tzZbBcS-bRDwXbW8W-29" value="MainLoop" style="rounded=1;whiteSpace=wrap;html=1;" vertex="1" parent="1">
          <mxGeometry x="380" y="180" width="120" height="60" as="geometry" />
        </mxCell>
        <mxCell id="7U9tzZbBcS-bRDwXbW8W-35" style="edgeStyle=orthogonalEdgeStyle;rounded=0;orthogonalLoop=1;jettySize=auto;html=1;exitX=0.5;exitY=1;exitDx=0;exitDy=0;entryX=0.5;entryY=0;entryDx=0;entryDy=0;" edge="1" parent="1" source="7U9tzZbBcS-bRDwXbW8W-32" target="7U9tzZbBcS-bRDwXbW8W-34">
          <mxGeometry relative="1" as="geometry" />
        </mxCell>
        <mxCell id="7U9tzZbBcS-bRDwXbW8W-38" style="edgeStyle=orthogonalEdgeStyle;rounded=0;orthogonalLoop=1;jettySize=auto;html=1;exitX=1;exitY=0.5;exitDx=0;exitDy=0;entryX=0;entryY=0.5;entryDx=0;entryDy=0;" edge="1" parent="1" source="7U9tzZbBcS-bRDwXbW8W-32">
          <mxGeometry relative="1" as="geometry">
            <mxPoint x="790" y="210" as="targetPoint" />
          </mxGeometry>
        </mxCell>
        <mxCell id="7U9tzZbBcS-bRDwXbW8W-32" value="Timer0A == 1?" style="rhombus;whiteSpace=wrap;html=1;" vertex="1" parent="1">
          <mxGeometry x="570" y="170" width="160" height="80" as="geometry" />
        </mxCell>
        <mxCell id="7U9tzZbBcS-bRDwXbW8W-47" style="edgeStyle=orthogonalEdgeStyle;rounded=0;orthogonalLoop=1;jettySize=auto;html=1;exitX=0.5;exitY=1;exitDx=0;exitDy=0;entryX=0.5;entryY=0;entryDx=0;entryDy=0;" edge="1" parent="1" source="7U9tzZbBcS-bRDwXbW8W-34" target="7U9tzZbBcS-bRDwXbW8W-46">
          <mxGeometry relative="1" as="geometry" />
        </mxCell>
        <mxCell id="7U9tzZbBcS-bRDwXbW8W-34" value="Atualiza Dados Timer0A" style="rounded=1;whiteSpace=wrap;html=1;" vertex="1" parent="1">
          <mxGeometry x="590" y="300" width="120" height="60" as="geometry" />
        </mxCell>
        <mxCell id="7U9tzZbBcS-bRDwXbW8W-36" value="Sim" style="text;html=1;align=center;verticalAlign=middle;resizable=0;points=[];autosize=1;strokeColor=none;fillColor=none;" vertex="1" parent="1">
          <mxGeometry x="645" y="260" width="50" height="30" as="geometry" />
        </mxCell>
        <mxCell id="7U9tzZbBcS-bRDwXbW8W-39" value="não" style="text;strokeColor=none;align=center;fillColor=none;html=1;verticalAlign=middle;whiteSpace=wrap;rounded=0;" vertex="1" parent="1">
          <mxGeometry x="730" y="180" width="60" height="30" as="geometry" />
        </mxCell>
        <mxCell id="7U9tzZbBcS-bRDwXbW8W-44" style="edgeStyle=orthogonalEdgeStyle;rounded=0;orthogonalLoop=1;jettySize=auto;html=1;exitX=0.5;exitY=0;exitDx=0;exitDy=0;entryX=0.5;entryY=0;entryDx=0;entryDy=0;" edge="1" parent="1" source="7U9tzZbBcS-bRDwXbW8W-40" target="7U9tzZbBcS-bRDwXbW8W-29">
          <mxGeometry relative="1" as="geometry" />
        </mxCell>
        <mxCell id="7U9tzZbBcS-bRDwXbW8W-40" value="Timer1A == 1?" style="rhombus;whiteSpace=wrap;html=1;" vertex="1" parent="1">
          <mxGeometry x="790" y="170" width="160" height="80" as="geometry" />
        </mxCell>
        <mxCell id="7U9tzZbBcS-bRDwXbW8W-41" style="edgeStyle=orthogonalEdgeStyle;rounded=0;orthogonalLoop=1;jettySize=auto;html=1;exitX=0.5;exitY=1;exitDx=0;exitDy=0;entryX=0.5;entryY=0;entryDx=0;entryDy=0;" edge="1" parent="1" target="7U9tzZbBcS-bRDwXbW8W-42">
          <mxGeometry relative="1" as="geometry">
            <mxPoint x="870" y="250" as="sourcePoint" />
          </mxGeometry>
        </mxCell>
        <mxCell id="7U9tzZbBcS-bRDwXbW8W-49" style="edgeStyle=orthogonalEdgeStyle;rounded=0;orthogonalLoop=1;jettySize=auto;html=1;exitX=0.5;exitY=1;exitDx=0;exitDy=0;entryX=0.5;entryY=0;entryDx=0;entryDy=0;" edge="1" parent="1" source="7U9tzZbBcS-bRDwXbW8W-42" target="7U9tzZbBcS-bRDwXbW8W-48">
          <mxGeometry relative="1" as="geometry" />
        </mxCell>
        <mxCell id="7U9tzZbBcS-bRDwXbW8W-42" value="Atualiza Dados Timer1A" style="rounded=1;whiteSpace=wrap;html=1;" vertex="1" parent="1">
          <mxGeometry x="810" y="300" width="120" height="60" as="geometry" />
        </mxCell>
        <mxCell id="7U9tzZbBcS-bRDwXbW8W-43" value="Sim" style="text;html=1;align=center;verticalAlign=middle;resizable=0;points=[];autosize=1;strokeColor=none;fillColor=none;" vertex="1" parent="1">
          <mxGeometry x="865" y="260" width="50" height="30" as="geometry" />
        </mxCell>
        <mxCell id="7U9tzZbBcS-bRDwXbW8W-45" value="Não" style="text;html=1;align=center;verticalAlign=middle;resizable=0;points=[];autosize=1;strokeColor=none;fillColor=none;" vertex="1" parent="1">
          <mxGeometry x="620" y="120" width="50" height="30" as="geometry" />
        </mxCell>
        <mxCell id="7U9tzZbBcS-bRDwXbW8W-54" style="edgeStyle=orthogonalEdgeStyle;rounded=0;orthogonalLoop=1;jettySize=auto;html=1;exitX=0.5;exitY=1;exitDx=0;exitDy=0;entryX=0.5;entryY=0;entryDx=0;entryDy=0;" edge="1" parent="1" source="7U9tzZbBcS-bRDwXbW8W-46" target="7U9tzZbBcS-bRDwXbW8W-53">
          <mxGeometry relative="1" as="geometry" />
        </mxCell>
        <mxCell id="7U9tzZbBcS-bRDwXbW8W-46" value="Lê tecla" style="rounded=1;whiteSpace=wrap;html=1;" vertex="1" parent="1">
          <mxGeometry x="590" y="400" width="120" height="60" as="geometry" />
        </mxCell>
        <mxCell id="7U9tzZbBcS-bRDwXbW8W-52" style="edgeStyle=orthogonalEdgeStyle;rounded=0;orthogonalLoop=1;jettySize=auto;html=1;exitX=0.5;exitY=1;exitDx=0;exitDy=0;entryX=0.5;entryY=0;entryDx=0;entryDy=0;" edge="1" parent="1" source="7U9tzZbBcS-bRDwXbW8W-48" target="7U9tzZbBcS-bRDwXbW8W-29">
          <mxGeometry relative="1" as="geometry">
            <Array as="points">
              <mxPoint x="870" y="480" />
              <mxPoint x="990" y="480" />
              <mxPoint x="990" y="80" />
              <mxPoint x="440" y="80" />
            </Array>
          </mxGeometry>
        </mxCell>
        <mxCell id="7U9tzZbBcS-bRDwXbW8W-48" value="Pisca LEDs" style="rounded=1;whiteSpace=wrap;html=1;" vertex="1" parent="1">
          <mxGeometry x="810" y="400" width="120" height="60" as="geometry" />
        </mxCell>
        <mxCell id="7U9tzZbBcS-bRDwXbW8W-55" style="edgeStyle=orthogonalEdgeStyle;rounded=0;orthogonalLoop=1;jettySize=auto;html=1;exitX=0.5;exitY=1;exitDx=0;exitDy=0;" edge="1" parent="1" source="7U9tzZbBcS-bRDwXbW8W-53">
          <mxGeometry relative="1" as="geometry">
            <mxPoint x="650.2631578947371" y="620" as="targetPoint" />
          </mxGeometry>
        </mxCell>
        <mxCell id="7U9tzZbBcS-bRDwXbW8W-53" value="Key == Prev_keypress?" style="rhombus;whiteSpace=wrap;html=1;" vertex="1" parent="1">
          <mxGeometry x="565" y="490" width="170" height="80" as="geometry" />
        </mxCell>
        <mxCell id="7U9tzZbBcS-bRDwXbW8W-58" style="edgeStyle=orthogonalEdgeStyle;rounded=0;orthogonalLoop=1;jettySize=auto;html=1;exitX=0.5;exitY=1;exitDx=0;exitDy=0;" edge="1" parent="1" source="7U9tzZbBcS-bRDwXbW8W-57">
          <mxGeometry relative="1" as="geometry">
            <mxPoint x="650.2631578947371" y="730" as="targetPoint" />
          </mxGeometry>
        </mxCell>
        <mxCell id="7U9tzZbBcS-bRDwXbW8W-57" value="multi_table: atualiza o fator" style="shape=process;whiteSpace=wrap;html=1;backgroundOutline=1;" vertex="1" parent="1">
          <mxGeometry x="590" y="620" width="120" height="60" as="geometry" />
        </mxCell>
        <mxCell id="7U9tzZbBcS-bRDwXbW8W-63" style="edgeStyle=orthogonalEdgeStyle;rounded=0;orthogonalLoop=1;jettySize=auto;html=1;exitX=0;exitY=0.5;exitDx=0;exitDy=0;entryX=0.5;entryY=1;entryDx=0;entryDy=0;" edge="1" parent="1" source="7U9tzZbBcS-bRDwXbW8W-59" target="7U9tzZbBcS-bRDwXbW8W-29">
          <mxGeometry relative="1" as="geometry" />
        </mxCell>
        <mxCell id="7U9tzZbBcS-bRDwXbW8W-59" value="create_first_row&amp;nbsp; &amp;amp;&lt;br&gt;create_second_row:&lt;br&gt;escreve no lcd" style="shape=process;whiteSpace=wrap;html=1;backgroundOutline=1;" vertex="1" parent="1">
          <mxGeometry x="570" y="730" width="160" height="60" as="geometry" />
        </mxCell>
        <mxCell id="7U9tzZbBcS-bRDwXbW8W-60" value="não" style="text;strokeColor=none;align=center;fillColor=none;html=1;verticalAlign=middle;whiteSpace=wrap;rounded=0;" vertex="1" parent="1">
          <mxGeometry x="635" y="575" width="60" height="30" as="geometry" />
        </mxCell>
        <mxCell id="7U9tzZbBcS-bRDwXbW8W-66" value="Inicializa portas" style="rounded=1;whiteSpace=wrap;html=1;arcSize=50;" vertex="1" parent="1">
          <mxGeometry x="1230" y="50" width="150" height="50" as="geometry" />
        </mxCell>
        <mxCell id="7U9tzZbBcS-bRDwXbW8W-67" value="Inicializa timer" style="rounded=1;whiteSpace=wrap;html=1;arcSize=50;" vertex="1" parent="1">
          <mxGeometry x="1670" y="50" width="150" height="50" as="geometry" />
        </mxCell>
        <mxCell id="7U9tzZbBcS-bRDwXbW8W-68" value="Inicializa LCD" style="rounded=1;whiteSpace=wrap;html=1;arcSize=50;" vertex="1" parent="1">
          <mxGeometry x="1450" y="50" width="150" height="50" as="geometry" />
        </mxCell>
        <mxCell id="7U9tzZbBcS-bRDwXbW8W-70" value="Inicializa interruptions" style="rounded=1;whiteSpace=wrap;html=1;arcSize=50;" vertex="1" parent="1">
          <mxGeometry x="1890" y="50" width="150" height="50" as="geometry" />
        </mxCell>
        <mxCell id="7U9tzZbBcS-bRDwXbW8W-73" style="edgeStyle=orthogonalEdgeStyle;rounded=0;orthogonalLoop=1;jettySize=auto;html=1;exitX=0.5;exitY=1;exitDx=0;exitDy=0;entryX=0.5;entryY=0;entryDx=0;entryDy=0;" edge="1" parent="1" source="7U9tzZbBcS-bRDwXbW8W-71" target="7U9tzZbBcS-bRDwXbW8W-72">
          <mxGeometry relative="1" as="geometry" />
        </mxCell>
        <mxCell id="7U9tzZbBcS-bRDwXbW8W-71" value="Cria tabela de fatores" style="rounded=1;whiteSpace=wrap;html=1;arcSize=50;" vertex="1" parent="1">
          <mxGeometry x="2110" y="50" width="150" height="50" as="geometry" />
        </mxCell>
        <mxCell id="7U9tzZbBcS-bRDwXbW8W-76" value="" style="edgeStyle=orthogonalEdgeStyle;rounded=0;orthogonalLoop=1;jettySize=auto;html=1;" edge="1" parent="1" source="7U9tzZbBcS-bRDwXbW8W-72" target="7U9tzZbBcS-bRDwXbW8W-75">
          <mxGeometry relative="1" as="geometry" />
        </mxCell>
        <mxCell id="7U9tzZbBcS-bRDwXbW8W-72" value="Carrega o endereço do começo da tabela" style="rounded=1;whiteSpace=wrap;html=1;" vertex="1" parent="1">
          <mxGeometry x="2125" y="150" width="120" height="60" as="geometry" />
        </mxCell>
        <mxCell id="7U9tzZbBcS-bRDwXbW8W-78" value="" style="edgeStyle=orthogonalEdgeStyle;rounded=0;orthogonalLoop=1;jettySize=auto;html=1;" edge="1" parent="1" source="7U9tzZbBcS-bRDwXbW8W-75" target="7U9tzZbBcS-bRDwXbW8W-77">
          <mxGeometry relative="1" as="geometry" />
        </mxCell>
        <mxCell id="7U9tzZbBcS-bRDwXbW8W-75" value="carrega qtd de números armazenados" style="whiteSpace=wrap;html=1;rounded=1;" vertex="1" parent="1">
          <mxGeometry x="2125" y="230" width="120" height="60" as="geometry" />
        </mxCell>
        <mxCell id="7U9tzZbBcS-bRDwXbW8W-80" style="edgeStyle=orthogonalEdgeStyle;rounded=0;orthogonalLoop=1;jettySize=auto;html=1;exitX=0.5;exitY=1;exitDx=0;exitDy=0;entryX=0.5;entryY=0;entryDx=0;entryDy=0;" edge="1" parent="1" source="7U9tzZbBcS-bRDwXbW8W-77" target="7U9tzZbBcS-bRDwXbW8W-79">
          <mxGeometry relative="1" as="geometry" />
        </mxCell>
        <mxCell id="7U9tzZbBcS-bRDwXbW8W-77" value="Carrega valor" style="whiteSpace=wrap;html=1;rounded=1;" vertex="1" parent="1">
          <mxGeometry x="2125" y="320" width="120" height="60" as="geometry" />
        </mxCell>
        <mxCell id="7U9tzZbBcS-bRDwXbW8W-81" style="edgeStyle=orthogonalEdgeStyle;rounded=0;orthogonalLoop=1;jettySize=auto;html=1;exitX=0;exitY=0.5;exitDx=0;exitDy=0;entryX=0;entryY=0.5;entryDx=0;entryDy=0;" edge="1" parent="1" source="7U9tzZbBcS-bRDwXbW8W-79" target="7U9tzZbBcS-bRDwXbW8W-77">
          <mxGeometry relative="1" as="geometry" />
        </mxCell>
        <mxCell id="7U9tzZbBcS-bRDwXbW8W-84" value="" style="edgeStyle=orthogonalEdgeStyle;rounded=0;orthogonalLoop=1;jettySize=auto;html=1;" edge="1" parent="1" source="7U9tzZbBcS-bRDwXbW8W-79" target="7U9tzZbBcS-bRDwXbW8W-83">
          <mxGeometry relative="1" as="geometry" />
        </mxCell>
        <mxCell id="7U9tzZbBcS-bRDwXbW8W-79" value="Chegou ao fim?" style="rhombus;whiteSpace=wrap;html=1;" vertex="1" parent="1">
          <mxGeometry x="2125" y="410" width="120" height="80" as="geometry" />
        </mxCell>
        <mxCell id="7U9tzZbBcS-bRDwXbW8W-82" value="não" style="text;html=1;align=center;verticalAlign=middle;whiteSpace=wrap;rounded=0;" vertex="1" parent="1">
          <mxGeometry x="2090" y="381" width="60" height="30" as="geometry" />
        </mxCell>
        <mxCell id="7U9tzZbBcS-bRDwXbW8W-83" value="Retorna ao loop principal" style="whiteSpace=wrap;html=1;" vertex="1" parent="1">
          <mxGeometry x="2125" y="515" width="120" height="60" as="geometry" />
        </mxCell>
        <mxCell id="7U9tzZbBcS-bRDwXbW8W-85" value="Sim" style="text;html=1;align=center;verticalAlign=middle;whiteSpace=wrap;rounded=0;" vertex="1" parent="1">
          <mxGeometry x="2170" y="485" width="60" height="30" as="geometry" />
        </mxCell>
        <mxCell id="7U9tzZbBcS-bRDwXbW8W-88" style="edgeStyle=orthogonalEdgeStyle;rounded=0;orthogonalLoop=1;jettySize=auto;html=1;exitX=0.5;exitY=1;exitDx=0;exitDy=0;entryX=0.5;entryY=0;entryDx=0;entryDy=0;" edge="1" parent="1" source="7U9tzZbBcS-bRDwXbW8W-86" target="7U9tzZbBcS-bRDwXbW8W-87">
          <mxGeometry relative="1" as="geometry" />
        </mxCell>
        <mxCell id="7U9tzZbBcS-bRDwXbW8W-86" value="Atualizar a tabela de fatores" style="rounded=1;whiteSpace=wrap;html=1;arcSize=50;" vertex="1" parent="1">
          <mxGeometry x="2100" y="640" width="170" height="50" as="geometry" />
        </mxCell>
        <mxCell id="7U9tzZbBcS-bRDwXbW8W-89" style="edgeStyle=orthogonalEdgeStyle;rounded=0;orthogonalLoop=1;jettySize=auto;html=1;exitX=0.5;exitY=1;exitDx=0;exitDy=0;entryX=0.5;entryY=0;entryDx=0;entryDy=0;" edge="1" parent="1" source="7U9tzZbBcS-bRDwXbW8W-87" target="7U9tzZbBcS-bRDwXbW8W-90">
          <mxGeometry relative="1" as="geometry">
            <mxPoint x="2185" y="840" as="targetPoint" />
          </mxGeometry>
        </mxCell>
        <mxCell id="7U9tzZbBcS-bRDwXbW8W-87" value="Recupera a tecla atual" style="rounded=1;whiteSpace=wrap;html=1;" vertex="1" parent="1">
          <mxGeometry x="2125" y="730" width="120" height="60" as="geometry" />
        </mxCell>
        <mxCell id="7U9tzZbBcS-bRDwXbW8W-92" style="edgeStyle=orthogonalEdgeStyle;rounded=0;orthogonalLoop=1;jettySize=auto;html=1;exitX=0.5;exitY=1;exitDx=0;exitDy=0;entryX=0.5;entryY=0;entryDx=0;entryDy=0;" edge="1" parent="1" source="7U9tzZbBcS-bRDwXbW8W-90" target="7U9tzZbBcS-bRDwXbW8W-91">
          <mxGeometry relative="1" as="geometry" />
        </mxCell>
        <mxCell id="7U9tzZbBcS-bRDwXbW8W-90" value="Carrega o ponteiro para o primeiro fator " style="rounded=1;whiteSpace=wrap;html=1;" vertex="1" parent="1">
          <mxGeometry x="2125" y="827" width="120" height="60" as="geometry" />
        </mxCell>
        <mxCell id="7U9tzZbBcS-bRDwXbW8W-94" style="edgeStyle=orthogonalEdgeStyle;rounded=0;orthogonalLoop=1;jettySize=auto;html=1;exitX=0.5;exitY=1;exitDx=0;exitDy=0;entryX=0.5;entryY=0;entryDx=0;entryDy=0;" edge="1" parent="1" source="7U9tzZbBcS-bRDwXbW8W-91">
          <mxGeometry relative="1" as="geometry">
            <mxPoint x="2185" y="1020" as="targetPoint" />
          </mxGeometry>
        </mxCell>
        <mxCell id="7U9tzZbBcS-bRDwXbW8W-91" value="Faz o offset para o fator&amp;nbsp; digitado" style="rounded=1;whiteSpace=wrap;html=1;" vertex="1" parent="1">
          <mxGeometry x="2125" y="920" width="120" height="60" as="geometry" />
        </mxCell>
      </root>
    </mxGraphModel>
  </diagram>
</mxfile>
